@startuml

!include ./utils/style.iuml
!include ./utils/states.iuml
hide empty description

title Aktives Abschließen im offenen Zustand

$state_init(init)
$state_open(open)
$state_completed(completed)
$state_cancelled(deleted)


[*] -> init

init -> open : <color:black><back:Lime> 1
open -> completed : <color:black><back:Lime> 4
completed -> deleted : <color:black><back:yellow> ML3
completed -[dashed]> deleted : <color:black><back:Lavender> AL2

deleted -> [*]

@enduml
