@startuml

!include ./utils/style.iuml
!include ./utils/states.iuml
hide empty description

title Löschen im offenen Zustand

$state_init(init)
$state_open(open)
$state_cancelled(deleted)


[*] -> init

init -> open : <color:black><back:Lime> 1
open -> deleted : <color:black><back:yellow> ML2

deleted -> [*]

@enduml
